<?xml version="1.0" encoding="UTF-8" standalone="no"?>
<!-- Created with Inkscape (http://www.inkscape.org/) -->

<svg
   xmlns:dc="http://purl.org/dc/elements/1.1/"
   xmlns:cc="http://creativecommons.org/ns#"
   xmlns:rdf="http://www.w3.org/1999/02/22-rdf-syntax-ns#"
   xmlns:svg="http://www.w3.org/2000/svg"
   xmlns="http://www.w3.org/2000/svg"
   xmlns:sodipodi="http://sodipodi.sourceforge.net/DTD/sodipodi-0.dtd"
   xmlns:inkscape="http://www.inkscape.org/namespaces/inkscape"
   version="1.1"
   id="svg1199"
   width="511.21579"
   height="491.97668"
   viewBox="0 0 511.21579 491.97668"
   sodipodi:docname="693762_drawing_512x512.png.svg"
   inkscape:version="0.92.5 (2060ec1f9f, 2020-04-08)">
  <metadata
     id="metadata1205">
    <rdf:RDF>
      <cc:Work
         rdf:about="">
        <dc:format>image/svg+xml</dc:format>
        <dc:type
           rdf:resource="http://purl.org/dc/dcmitype/StillImage" />
        <dc:title></dc:title>
      </cc:Work>
    </rdf:RDF>
  </metadata>
  <defs
     id="defs1203" />
  <sodipodi:namedview
     pagecolor="#ffffff"
     bordercolor="#666666"
     borderopacity="1"
     objecttolerance="10"
     gridtolerance="10"
     guidetolerance="10"
     inkscape:pageopacity="0"
     inkscape:pageshadow="2"
     inkscape:window-width="1872"
     inkscape:window-height="1032"
     id="namedview1201"
     showgrid="false"
     inkscape:zoom="1.3037281"
     inkscape:cx="237.511"
     inkscape:cy="291.52645"
     inkscape:window-x="48"
     inkscape:window-y="48"
     inkscape:window-maximized="0"
     inkscape:current-layer="svg1199"
     showborder="false"
     fit-margin-top="0"
     fit-margin-left="0"
     fit-margin-right="0"
     fit-margin-bottom="0" />
  <path
     style="fill:#ffffff"
     d="m 209.85249,490.12095 c -2.78737,-2.78737 -2.66184,-5.02391 0.54562,-9.7209 1.46084,-2.13925 3.82334,-6.36455 5.25001,-9.38955 2.32485,-4.92947 2.59309,-6.69293 2.58584,-17 -0.007,-9.8051 -0.59643,-14.07919 -3.99999,-29 -3.86736,-16.9541 -3.98954,-18.0459 -3.91674,-35 0.0702,-16.34221 0.25601,-18.02928 2.809,-25.5 5.60536,-16.40269 17.36522,-35.1509 30.11582,-48.01225 12.37524,-12.48274 26.67728,-20.84808 40.18792,-23.50613 l 5.87139,-1.15513 31.2022,18.27409 31.2022,18.27408 1.51515,4.56267 c 0.83333,2.50947 1.99613,8.38767 2.584,13.06267 4.69688,37.35205 -23.30793,91.53828 -62.28083,120.50658 -21.88551,16.26735 -43.74677,24.39003 -67.92158,25.23665 -12.88085,0.4511 -13.75696,0.36027 -15.75001,-1.63278 z m 45.81264,-118.18737 c 1.6923,-1.69231 3.07728,-3.60481 3.07771,-4.25 4.3e-4,-0.6452 1.3248,-3.97179 2.94305,-7.39244 3.63914,-7.69245 9.58257,-13.74777 18.74737,-19.1003 8.0067,-4.67616 10.41348,-7.68235 10.48825,-13.10037 0.10557,-7.64911 -6.89558,-13.15678 -14.32671,-11.27056 -6.48653,1.64646 -14.79231,7.21004 -23.42423,15.69059 -6.52073,6.4064 -8.99013,9.72186 -12.39652,16.64383 -5.16945,10.5046 -5.99018,16.00391 -3.08049,20.64073 2.407,3.83574 4.96431,5.0646 10.72157,5.15205 3.37361,0.0513 4.76254,-0.52608 7.25,-3.01353 z m -61.17145,108.30047 c -2.61885,-2.9883 -4.70973,-7.91832 -6.3337,-14.93397 -3.9065,-16.87634 -8.48278,-18.89279 -45.91794,-20.23286 -25.29794,-0.90559 -29.84675,-1.67025 -39.74095,-6.68051 -11.999335,-6.07626 -22.418268,-21.83117 -23.448865,-35.45803 -0.755363,-9.98763 1.545757,-18.04566 10.971024,-38.41818 7.960338,-17.20611 10.254531,-23.43215 11.244481,-30.5155 1.35326,-9.68292 -5.616695,-12.83853 -34.071362,-15.42562 -32.035101,-2.91261 -42.37567,-5.83636 -51.992141,-14.70051 -9.3304936,-8.60055 -13.8572536,-17.98595 -15.0272936,-31.15635 -1.6489697,-18.5615 8.37794,-42.2203 23.8135346,-56.1887 5.837211,-5.28238 8.615658,-6.42566 9.459073,-3.89225 0.205272,0.61658 -1.655575,3.49786 -4.135214,6.40283 -5.976459,7.00161 -11.87753,18.54847 -15.018514,29.38731 -5.9462596,20.51929 -1.60961,35.27242 12.446238,42.34169 8.340958,4.19501 18.446141,5.2365 41,4.22565 26.522687,-1.18873 37.452059,0.80109 49.841049,9.07415 10.20248,6.81295 16.05906,16.51748 17.59818,29.16066 0.98707,8.10831 -1.56806,20.43516 -7.60873,36.70724 -2.80569,7.55783 -5.27257,16.07268 -5.56313,19.20206 -0.4534,4.88314 -0.22843,5.91629 1.71051,7.85523 2.02762,2.02762 2.84254,2.17008 8.87734,1.5519 3.65462,-0.37436 13.39477,-1.78397 21.64477,-3.13245 16.69561,-2.72893 31.6776,-3.17937 38.5,-1.1575 4.36593,1.29387 4.52362,1.48148 5.29275,6.29688 0.43602,2.72981 2.15496,11.93828 3.81987,20.46328 7.74353,39.64987 7.77755,38.84088 -2.32206,55.22355 -3.26082,5.28939 -3.64304,5.59281 -5.03892,4 z M 327.24205,296.0109 c -18.52652,-11.00874 -29.88418,-18.33778 -29.69715,-19.16343 0.91381,-4.03415 12.26358,-31.92241 16.91949,-41.57399 7.00325,-14.51755 17.14439,-30.29199 75.62336,-117.63142 65.75589,-98.207628 73.24436,-109.0815158 77.19686,-112.0962328 10.42064,-7.948206 26.33629,-7.271197 35.37951,1.504949 6.32513,6.1383268 8.46613,11.1671598 8.51225,19.9937658 l 0.0394,7.534048 -19.87994,40.465952 C 439.09193,181.38774 397.66307,262.85432 389.85615,274.59619 c -9.27811,13.9546 -29.14474,38.84175 -31.19454,39.07774 -0.78076,0.0899 -14.91956,-7.85847 -31.41956,-17.66303 z"
     id="path1209"
     inkscape:connector-curvature="0" />
</svg>
