<?xml version="1.0" encoding="UTF-8" standalone="no"?>
<!-- Created with Inkscape (http://www.inkscape.org/) -->

<svg
   xmlns:dc="http://purl.org/dc/elements/1.1/"
   xmlns:cc="http://creativecommons.org/ns#"
   xmlns:rdf="http://www.w3.org/1999/02/22-rdf-syntax-ns#"
   xmlns:svg="http://www.w3.org/2000/svg"
   xmlns="http://www.w3.org/2000/svg"
   xmlns:sodipodi="http://sodipodi.sourceforge.net/DTD/sodipodi-0.dtd"
   xmlns:inkscape="http://www.inkscape.org/namespaces/inkscape"
   version="1.1"
   id="svg4735"
   width="512"
   height="512"
   viewBox="0 0 512 512"
   sodipodi:docname="gimp-555552.png">
  <metadata
     id="metadata4741">
    <rdf:RDF>
      <cc:Work
         rdf:about="">
        <dc:format>image/svg+xml</dc:format>
        <dc:type
           rdf:resource="http://purl.org/dc/dcmitype/StillImage" />
        <dc:title></dc:title>
      </cc:Work>
    </rdf:RDF>
  </metadata>
  <defs
     id="defs4739" />
  <sodipodi:namedview
     pagecolor="#ffffff"
     bordercolor="#666666"
     borderopacity="1"
     objecttolerance="10"
     gridtolerance="10"
     guidetolerance="10"
     inkscape:pageopacity="0"
     inkscape:pageshadow="2"
     inkscape:window-width="1872"
     inkscape:window-height="1032"
     id="namedview4737"
     showgrid="false"
     showborder="false"
     inkscape:zoom="1.6308594"
     inkscape:cx="256"
     inkscape:cy="256"
     inkscape:window-x="48"
     inkscape:window-y="48"
     inkscape:window-maximized="1"
     inkscape:current-layer="svg4735" />
  <path
     style="fill:#ffffff"
     d="m 484.09212,435.13842 c -20.72019,-6.16094 -36.02654,-13.81543 -46.17724,-23.0926 -6.86501,-6.27423 -9.81465,-10.73501 -11.94573,-18.06568 l -1.60014,-5.50428 -9.55624,-2.20825 c -19.01791,-4.39464 -47.00002,-14.55578 -69.60959,-25.27732 l -12.74113,-6.04189 -8.75887,4.04467 c -34.46929,15.91725 -75.44143,18.87881 -120.79293,8.7312 -31.06383,-6.95068 -64.04876,-19.69518 -88.71594,-34.27748 -4.2625,-2.51983 -7.75,-4.8969 -7.75,-5.28238 0,-0.38549 1.03263,-0.96006 2.29473,-1.27682 7.1493,-1.79437 21.38491,-13.97705 27.49891,-23.53329 6.37222,-9.95985 12.12441,-30.52906 11.04211,-39.4854 -0.31647,-2.6189 -0.65155,-2.79488 -5.83575,-3.06475 -3.025,-0.15747 -7.6375,-0.6234 -10.25,-1.03542 l -4.75,-0.74911 v 6.40345 c 0,13.30058 -5.07173,25.7261 -13.96178,34.20577 C 100.77347,310.7974 86.610165,314.47296 69.367415,310.81779 56.181776,308.02266 44.760161,301.49983 32.585159,289.81162 19.704205,277.44567 10.58886,262.10563 6.4544592,245.83675 c -2.43864,-9.59606 -2.67537,-24.61591 -0.51849,-32.89674 6.7263878,-25.82435 30.2902698,-38.78239 57.7524858,-31.75874 7.47287,1.91124 15.73861,5.54681 20.92256,9.20248 l 2.66672,1.88054 1.69605,-5.25879 c 0.93282,-2.89233 2.8828,-7.28379 4.33328,-9.75879 l 2.63724,-4.5 0.5,-48.85453 0.5,-48.854545 10.939685,16.35454 c 22.79627,34.079815 50.81363,56.322685 76.79268,60.965395 l 6.78853,1.21318 4.49174,-3.22573 c 18.89377,-13.56848 45.37208,-15.78065 66.91265,-5.59033 l 5.53219,2.61714 9.77126,-2.65356 c 29.46468,-8.00166 57.80564,-23.64736 77.07243,-42.54803 13.01338,-12.766085 19.28427,-22.394605 27.75903,-42.622068 7.25376,-17.313193 12.68107,-23.290214 21.15501,-23.297729 8.54074,-0.0076 12.94838,6.803546 15.79923,24.414511 3.95536,24.434041 4.48591,86.499056 1.03076,120.581756 -5.04207,49.73655 -16.38619,92.0442 -31.72013,118.29954 -2.20201,3.77036 -3.85097,6.97506 -3.66436,7.12155 0.18662,0.14649 4.8393,2.65741 10.3393,5.57984 18.98588,10.08813 29.42758,16.50403 42.88399,26.35005 l 6.88398,5.03699 10.11602,0.056 c 9.57305,0.053 10.45527,0.23996 16.43694,3.48315 12.37195,6.70792 17.16654,15.56823 20.65257,38.16555 1.82396,11.82337 3.32602,52.95638 1.92876,52.8179 -0.49624,-0.0492 -5.33574,-1.40767 -10.75445,-3.01887 z m -55.96327,-72.91146 2.18454,-4.97262 -6.61624,-4.72125 c -21.09123,-15.05039 -54.24022,-31.90417 -84.25284,-42.83626 -5.775,-2.10354 -10.61841,-3.89626 -10.76313,-3.98383 -0.14472,-0.0876 0.41778,-1.78885 1.25,-3.78063 3.16613,-7.57761 1.4385,-15.40965 -5.18109,-23.48798 -3.8677,-4.72002 -13.33994,-12.14915 -19.50347,-15.29666 l -3.69768,-1.88829 3.50917,7.38932 c 2.09247,4.40614 3.74406,9.66519 4.091,13.02664 0.51619,5.0014 0.31184,5.9292 -1.81149,8.22484 -7.94434,8.589 -33.91432,12.3651 -85.83593,12.48075 l -31.55738,0.0703 10.5,3.49028 c 13.93243,4.63126 37.87518,10.70743 53.14933,13.4882 15.81171,2.87864 46.30137,3.20398 54.17254,0.57805 l 4.82188,-1.60864 9.67812,6.26445 c 25.11259,16.25485 57.63328,30.85307 86.67813,38.90898 17.18154,4.76549 16.47815,4.81483 19.18454,-1.34565 z M 55.409016,246.88876 c 2.559319,-1.69368 4.787449,-4.47303 6.686789,-8.34106 2.41894,-4.92619 2.84558,-7.00741 2.82916,-13.80099 -0.0164,-6.76555 -0.44402,-8.81155 -2.77159,-13.25937 -11.780347,-22.51138 -39.600085,-10.38742 -37.45599,16.32348 1.487054,18.52556 16.991996,28.15716 30.711631,19.07794 z m 183.867084,3.32143 c 2.24644,-0.0308 1.84492,-0.43489 -2.54009,-2.55669 -6.44659,-3.11935 -13.58811,-10.89363 -15.69967,-17.09073 -2.25158,-6.60801 -2.03312,-16.74683 0.48024,-22.28762 2.4472,-5.39495 6.32718,-10.63667 8.88776,-12.00705 1.79158,-0.95882 1.80739,-0.86245 0.34084,2.07731 -1.96145,3.93182 -1.30893,11.65154 1.28772,15.23468 2.23342,3.0819 8.98266,6.67619 12.47713,6.64466 3.78723,-0.0342 10.59805,-3.53526 12.48775,-6.41929 5.22374,-7.97244 2.737,-18.12571 -5.58565,-22.80602 l -3.46782,-1.95015 4.77957,0.58363 c 10.65548,1.30114 21.65363,9.25617 24.79054,17.93114 1.882,5.20458 2.92989,4.5722 2.92989,-1.76813 0,-23.38821 -16.22233,-42.70727 -39.10212,-46.56645 -13.66137,-2.30428 -27.95074,2.22521 -38.50255,12.20467 -9.66235,9.13825 -14.39533,20.09094 -14.39533,33.31256 0,17.81462 10.36885,34.03647 26.65612,41.70294 5.69628,2.68126 17.06684,5.02951 20.17567,4.16668 0.73248,-0.20329 2.53248,-0.38605 4,-0.40614 z M 141.94431,237.8594 c -8.53194,-4.04033 -13.36741,-10.58951 -14.95868,-20.26006 -0.66323,-4.03065 0.65648,-6.88552 1.80245,-3.89917 1.56479,4.07778 12.23299,6.11809 16.84445,3.22152 1.27148,-0.79864 3.98455,-1.98227 6.02905,-2.63028 8.58494,-2.72102 11.80783,-13.29613 6.11429,-20.06251 -1.46764,-1.74419 -3.60514,-3.55019 -4.75,-4.01334 l -2.08156,-0.84208 2.09107,-0.0634 c 3.24892,-0.0985 11.39366,2.61281 13.45627,4.47945 1.76503,1.59733 1.8898,1.53813 2.48811,-1.18059 0.34645,-1.57424 1.06753,-4.21225 1.60241,-5.86225 0.91451,-2.82109 0.64427,-3.30766 -4.53157,-8.15903 -7.09142,-6.64685 -14.04411,-9.34095 -24.10629,-9.34095 -5.04126,0 -9.18721,0.65934 -12.91412,2.05375 -12.18194,4.55785 -21.37656,17.28849 -22.3541,30.95093 -0.49437,6.90938 -0.43787,7.11499 3.50558,12.75893 2.20442,3.15502 5.3786,8.46331 7.05374,11.79622 1.67513,3.33291 3.74593,6.64098 4.60177,7.35126 3.61721,3.00202 13.20849,6.04168 19.10713,6.05541 l 6,0.014 -5,-2.36777 z m -15.44874,-31.61269 c -0.0291,-4.67324 1.76933,-7.96248 5.86119,-10.71998 4.92793,-3.32094 6.73824,-2.79023 2.66915,0.78248 -1.9184,1.68437 -4.61762,5.39687 -5.99828,8.25 l -2.51028,5.1875 -0.0218,-3.5 z"
     id="path4763"
     inkscape:connector-curvature="0"
     inkscape:label="path4763" />
</svg>
